<svg width="36" height="36" viewBox="0 0 36 36" fill="none" xmlns="http://www.w3.org/2000/svg">
<path fill-rule="evenodd" clip-rule="evenodd" d="M18.5974 1.125C22.3429 1.25102 25.9388 2.62541 28.814 5.02984L9.99125 23.8563L18.5974 1.125ZM20.1496 17.9955L30.9599 7.18141C33.4902 10.2162 34.876 14.0428 34.876 17.9946C34.876 21.9464 33.4902 25.7729 30.9599 28.8077L20.1496 17.9955ZM14.367 3.71933L1.15881 16.9322C0.887612 21.1778 2.23237 25.3689 4.92297 28.6634L14.367 3.71933ZM7.19135 30.9583L18.0017 20.1441L28.8111 30.9583C25.7772 33.4895 21.9518 34.8758 18.0012 34.8758C14.0506 34.8758 10.2253 33.4895 7.19135 30.9583Z" fill="white"/>
</svg>
