<svg width="36" height="36" viewBox="0 0 36 36" fill="none" xmlns="http://www.w3.org/2000/svg">
<path d="M30.9719 4.01129L19.729 12.3616L21.8081 7.43502L30.9719 4.01129Z" fill="#E2761B" stroke="#E2761B" stroke-width="0.112994" stroke-linecap="round" stroke-linejoin="round"/>
<path d="M5.01758 4.01123L16.1701 12.4406L14.1927 7.43496L5.01758 4.01123Z" fill="#E4761B" stroke="#E4761B" stroke-width="0.112994" stroke-linecap="round" stroke-linejoin="round"/>
<path d="M26.927 23.3672L23.9326 27.9548L30.3394 29.7175L32.1812 23.4689L26.927 23.3672Z" fill="#E4761B" stroke="#E4761B" stroke-width="0.112994" stroke-linecap="round" stroke-linejoin="round"/>
<path d="M3.83105 23.4689L5.66156 29.7175L12.0683 27.9548L9.07399 23.3672L3.83105 23.4689Z" fill="#E4761B" stroke="#E4761B" stroke-width="0.112994" stroke-linecap="round" stroke-linejoin="round"/>
<path d="M11.7067 15.6157L9.92139 18.3163L16.283 18.5988L16.057 11.7626L11.7067 15.6157Z" fill="#E4761B" stroke="#E4761B" stroke-width="0.112994" stroke-linecap="round" stroke-linejoin="round"/>
<path d="M24.2832 15.6157L19.8764 11.6835L19.7295 18.5988L26.0798 18.3163L24.2832 15.6157Z" fill="#E4761B" stroke="#E4761B" stroke-width="0.112994" stroke-linecap="round" stroke-linejoin="round"/>
<path d="M12.0684 27.9547L15.8876 26.0903L12.5881 23.514L12.0684 27.9547Z" fill="#E4761B" stroke="#E4761B" stroke-width="0.112994" stroke-linecap="round" stroke-linejoin="round"/>
<path d="M20.1021 26.0903L23.9326 27.9547L23.4015 23.514L20.1021 26.0903Z" fill="#E4761B" stroke="#E4761B" stroke-width="0.112994" stroke-linecap="round" stroke-linejoin="round"/>
<path d="M23.9316 27.9549L20.1011 26.0905L20.4062 28.5876L20.3723 29.6385L23.9316 27.9549Z" fill="#D7C1B3" stroke="#D7C1B3" stroke-width="0.112994" stroke-linecap="round" stroke-linejoin="round"/>
<path d="M12.0674 27.9549L15.6267 29.6385L15.6041 28.5876L15.8866 26.0905L12.0674 27.9549Z" fill="#D7C1B3" stroke="#D7C1B3" stroke-width="0.112994" stroke-linecap="round" stroke-linejoin="round"/>
<path d="M15.6835 21.8644L12.4971 20.9266L14.7457 19.8983L15.6835 21.8644Z" fill="#233447" stroke="#233447" stroke-width="0.112994" stroke-linecap="round" stroke-linejoin="round"/>
<path d="M20.3052 21.8644L21.243 19.8983L23.5029 20.9266L20.3052 21.8644Z" fill="#233447" stroke="#233447" stroke-width="0.112994" stroke-linecap="round" stroke-linejoin="round"/>
<path d="M12.0676 27.9548L12.61 23.3672L9.07324 23.4689L12.0676 27.9548Z" fill="#CD6116" stroke="#CD6116" stroke-width="0.112994" stroke-linecap="round" stroke-linejoin="round"/>
<path d="M23.3896 23.3672L23.932 27.9548L26.9264 23.4689L23.3896 23.3672Z" fill="#CD6116" stroke="#CD6116" stroke-width="0.112994" stroke-linecap="round" stroke-linejoin="round"/>
<path d="M26.0788 18.3164L19.7285 18.5989L20.3161 21.8644L21.2539 19.8983L23.5138 20.9266L26.0788 18.3164Z" fill="#CD6116" stroke="#CD6116" stroke-width="0.112994" stroke-linecap="round" stroke-linejoin="round"/>
<path d="M12.4967 20.9266L14.7566 19.8983L15.6831 21.8644L16.282 18.5989L9.92041 18.3164L12.4967 20.9266Z" fill="#CD6116" stroke="#CD6116" stroke-width="0.112994" stroke-linecap="round" stroke-linejoin="round"/>
<path d="M9.9209 18.3163L12.5876 23.5141L12.4972 20.9265L9.9209 18.3163Z" fill="#E4751F" stroke="#E4751F" stroke-width="0.112994" stroke-linecap="round" stroke-linejoin="round"/>
<path d="M23.5139 20.9265L23.4009 23.5141L26.0788 18.3163L23.5139 20.9265Z" fill="#E4751F" stroke="#E4751F" stroke-width="0.112994" stroke-linecap="round" stroke-linejoin="round"/>
<path d="M16.2825 18.5989L15.6836 21.8644L16.4294 25.7175L16.5988 20.6441L16.2825 18.5989Z" fill="#E4751F" stroke="#E4751F" stroke-width="0.112994" stroke-linecap="round" stroke-linejoin="round"/>
<path d="M19.7289 18.5989L19.4238 20.6328L19.5594 25.7175L20.3165 21.8644L19.7289 18.5989Z" fill="#E4751F" stroke="#E4751F" stroke-width="0.112994" stroke-linecap="round" stroke-linejoin="round"/>
<path d="M20.3161 21.8644L19.5591 25.7175L20.1015 26.0904L23.4009 23.5141L23.5139 20.9266L20.3161 21.8644Z" fill="#F6851B" stroke="#F6851B" stroke-width="0.112994" stroke-linecap="round" stroke-linejoin="round"/>
<path d="M12.4971 20.9266L12.5875 23.5141L15.8869 26.0904L16.4293 25.7175L15.6835 21.8644L12.4971 20.9266Z" fill="#F6851B" stroke="#F6851B" stroke-width="0.112994" stroke-linecap="round" stroke-linejoin="round"/>
<path d="M20.373 29.6384L20.4069 28.5875L20.1244 28.339H15.8645L15.6046 28.5875L15.6272 29.6384L12.0679 27.9548L13.3108 28.9717L15.8306 30.7231H20.1583L22.6893 28.9717L23.9323 27.9548L20.373 29.6384Z" fill="#C0AD9E" stroke="#C0AD9E" stroke-width="0.112994" stroke-linecap="round" stroke-linejoin="round"/>
<path d="M20.1017 26.0904L19.5593 25.7175H16.4293L15.887 26.0904L15.6045 28.5876L15.8644 28.339H20.1243L20.4068 28.5876L20.1017 26.0904Z" fill="#161616" stroke="#161616" stroke-width="0.112994" stroke-linecap="round" stroke-linejoin="round"/>
<path d="M31.4467 12.9039L32.4071 8.29372L30.9721 4.01123L20.1021 12.079L24.2828 15.6158L30.1924 17.3446L31.5032 15.8191L30.9382 15.4124L31.8422 14.5875L31.1416 14.0451L32.0456 13.3559L31.4467 12.9039Z" fill="#763D16" stroke="#763D16" stroke-width="0.112994" stroke-linecap="round" stroke-linejoin="round"/>
<path d="M3.59375 8.29372L4.5542 12.9039L3.94403 13.3559L4.84799 14.0451L4.15872 14.5875L5.06268 15.4124L4.4977 15.8191L5.79714 17.3446L11.7067 15.6158L15.8875 12.079L5.01748 4.01123L3.59375 8.29372Z" fill="#763D16" stroke="#763D16" stroke-width="0.112994" stroke-linecap="round" stroke-linejoin="round"/>
<path d="M30.1918 17.3446L24.2822 15.6158L26.0788 18.3163L23.4009 23.5141L26.9263 23.4689H32.1805L30.1918 17.3446Z" fill="#F6851B" stroke="#F6851B" stroke-width="0.112994" stroke-linecap="round" stroke-linejoin="round"/>
<path d="M11.7063 15.6158L5.79667 17.3446L3.83057 23.4689H9.0735L12.5876 23.5141L9.92096 18.3163L11.7063 15.6158Z" fill="#F6851B" stroke="#F6851B" stroke-width="0.112994" stroke-linecap="round" stroke-linejoin="round"/>
<path d="M19.7286 18.5988L20.1015 12.0791L21.819 7.435H14.1919L15.8868 12.0791L16.2823 18.5988L16.4179 20.6553L16.4292 25.7175H19.5591L19.5817 20.6553L19.7286 18.5988Z" fill="#F6851B" stroke="#F6851B" stroke-width="0.112994" stroke-linecap="round" stroke-linejoin="round"/>
</svg>
