<svg width="36" height="36" viewBox="0 0 36 36" fill="none" xmlns="http://www.w3.org/2000/svg">
<path d="M36 18C36 8.05887 27.9411 0 18 0C8.05887 0 0 8.05887 0 18C0 27.9411 8.05887 36 18 36C27.9411 36 36 27.9411 36 18Z" fill="url(#paint0_radial_4_2926)"/>
<path d="M11.8974 12.9748C15.2677 9.67505 20.732 9.67505 24.1023 12.9748L24.5079 13.372C24.6764 13.537 24.6764 13.8045 24.5079 13.9695L23.1204 15.328C23.0361 15.4105 22.8995 15.4105 22.8152 15.328L22.2571 14.7815C19.9059 12.4795 16.0938 12.4795 13.7426 14.7815L13.1449 15.3667C13.0606 15.4492 12.924 15.4492 12.8397 15.3667L11.4522 14.0082C11.2837 13.8432 11.2837 13.5757 11.4522 13.4107L11.8974 12.9748ZM26.9719 15.7844L28.2068 16.9935C28.3753 17.1585 28.3753 17.426 28.2068 17.591L22.6385 23.0429C22.4699 23.2079 22.1967 23.2079 22.0282 23.0429C22.0282 23.0429 22.0282 23.0429 22.0282 23.0429L18.0762 19.1735C18.034 19.1323 17.9657 19.1323 17.9236 19.1735C17.9236 19.1735 17.9236 19.1735 17.9236 19.1735L13.9716 23.0429C13.8031 23.2079 13.5299 23.2079 13.3614 23.0429C13.3614 23.0429 13.3614 23.0429 13.3614 23.0429L7.79289 17.5909C7.62438 17.4259 7.62438 17.1584 7.79289 16.9934L9.02781 15.7843C9.19632 15.6194 9.46954 15.6194 9.63805 15.7843L13.5902 19.6538C13.6323 19.695 13.7006 19.695 13.7427 19.6538C13.7427 19.6538 13.7427 19.6538 13.7427 19.6538L17.6946 15.7843C17.8632 15.6193 18.1364 15.6193 18.3049 15.7843C18.3049 15.7843 18.3049 15.7843 18.3049 15.7843L22.257 19.6538C22.2991 19.695 22.3674 19.695 22.4096 19.6538L26.3616 15.7844C26.5301 15.6194 26.8033 15.6194 26.9719 15.7844Z" fill="white"/>
<defs>
<radialGradient id="paint0_radial_4_2926" cx="0" cy="0" r="1" gradientUnits="userSpaceOnUse" gradientTransform="translate(0 18) scale(36)">
<stop stop-color="#5D9DF6"/>
<stop offset="1" stop-color="#006FFF"/>
</radialGradient>
</defs>
</svg>
